STARTFONT 2.1
COMMENT converted Oberon font (using FontToBDF by R.Crelier 10.1.91)
FONT Elektra.Scn.Fnt
SIZE 1 75 75
FONTBOUNDINGBOX  28 31 0 0
STARTPROPERTIES 3
FONT_ASCENT 31
FONT_DESCENT 0
DEFAULT_CHAR 0
ENDPROPERTIES
CHARS 37
STARTCHAR c0
ENCODING -1 0
SWIDTH 0 0
DWIDTH 0 0
BBX 0 0 0 0
BITMAP
ENDCHAR
STARTCHAR c33
ENCODING -1 33
SWIDTH 161 0
DWIDTH 5 0
BBX 5 5 0 0
BITMAP
70
88
88
88
70
ENDCHAR
STARTCHAR c34
ENCODING -1 34
SWIDTH 774 0
DWIDTH 24 0
BBX 24 5 0 2
BITMAP
07FFE0
040020
FC003F
040020
07FFE0
ENDCHAR
STARTCHAR c35
ENCODING -1 35
SWIDTH 258 0
DWIDTH 8 0
BBX 5 24 2 0
BITMAP
20
20
20
20
20
20
F8
88
88
88
88
88
88
88
88
88
88
F8
20
20
20
20
20
20
ENDCHAR
STARTCHAR c36
ENCODING -1 36
SWIDTH 516 0
DWIDTH 16 0
BBX 16 9 0 0
BITMAP
0240
0240
0240
0240
FE7F
0240
0240
0240
0240
ENDCHAR
STARTCHAR c37
ENCODING -1 37
SWIDTH 258 0
DWIDTH 8 0
BBX 9 16 0 0
BITMAP
0800
0800
0800
0800
0800
0800
FF80
0000
0000
FF80
0800
0800
0800
0800
0800
0800
ENDCHAR
STARTCHAR c38
ENCODING -1 38
SWIDTH 258 0
DWIDTH 8 0
BBX 9 18 0 0
BITMAP
0800
0800
0800
0800
0800
3E00
0000
FF80
8080
8080
FF80
0000
3E00
0800
0800
0800
0800
0800
ENDCHAR
STARTCHAR c39
ENCODING -1 39
SWIDTH 290 0
DWIDTH 9 0
BBX 9 8 0 0
BITMAP
0800
0800
FF80
8080
4100
2200
1400
0800
ENDCHAR
STARTCHAR c40
ENCODING -1 40
SWIDTH 387 0
DWIDTH 12 0
BBX 12 5 0 2
BITMAP
3FC0
4020
8010
4020
3FC0
ENDCHAR
STARTCHAR c41
ENCODING -1 41
SWIDTH 225 0
DWIDTH 7 0
BBX 5 12 2 0
BITMAP
20
50
88
88
88
88
88
88
88
88
50
20
ENDCHAR
STARTCHAR c42
ENCODING -1 42
SWIDTH 774 0
DWIDTH 24 0
BBX 24 8 0 3
BITMAP
0000C0
000300
000C00
003000
00C000
0F0038
FA002F
0E0038
ENDCHAR
STARTCHAR c43
ENCODING -1 43
SWIDTH 129 0
DWIDTH 4 0
BBX 3 4 0 0
BITMAP
40
40
40
E0
ENDCHAR
STARTCHAR c44
ENCODING -1 44
SWIDTH 129 0
DWIDTH 4 0
BBX 4 3 0 1
BITMAP
10
F0
10
ENDCHAR
STARTCHAR c45
ENCODING -1 45
SWIDTH 129 0
DWIDTH 4 0
BBX 3 4 0 0
BITMAP
E0
40
40
40
ENDCHAR
STARTCHAR c46
ENCODING -1 46
SWIDTH 129 0
DWIDTH 4 0
BBX 4 3 0 1
BITMAP
80
F0
80
ENDCHAR
STARTCHAR c47
ENCODING -1 47
SWIDTH 516 0
DWIDTH 16 0
BBX 16 16 0 0
BITMAP
1111
2222
4444
8888
1111
2222
4444
8888
1111
2222
4444
8888
1111
2222
4444
8888
ENDCHAR
STARTCHAR c48
ENCODING -1 48
SWIDTH 806 0
DWIDTH 25 0
BBX 23 31 1 0
BITMAP
FFC000
803C00
800300
8000C0
800020
800010
800008
800008
800004
800004
800004
800002
800002
800002
800002
800002
800002
800002
800002
800002
800004
800004
800004
800008
800008
800010
800020
8000C0
800300
803C00
FFC000
ENDCHAR
STARTCHAR c49
ENCODING -1 49
SWIDTH 935 0
DWIDTH 29 0
BBX 27 31 1 0
BITMAP
FC000000
43C00000
20380000
20060000
10018000
10004000
08003000
08000800
08000400
04000200
04000100
04000080
04000040
04000040
04000020
04000020
04000020
04000040
04000040
04000080
04000100
04000200
08000400
08000800
08003000
10004000
10018000
20060000
20380000
43C00000
FC000000
ENDCHAR
STARTCHAR c50
ENCODING -1 50
SWIDTH 258 0
DWIDTH 8 0
BBX 6 31 1 0
BITMAP
80
40
20
20
10
10
08
08
08
04
04
04
04
04
04
04
04
04
04
04
04
04
08
08
08
10
10
20
20
40
80
ENDCHAR
STARTCHAR c51
ENCODING -1 51
SWIDTH 806 0
DWIDTH 25 0
BBX 24 25 1 0
BITMAP
C00000
B00000
8C0000
830000
80C000
803000
800C00
800300
8000C0
800030
80000C
800003
800001
800003
80000C
800030
8000C0
800300
800C00
803000
80C000
830000
8C0000
B00000
C00000
ENDCHAR
STARTCHAR c58
ENCODING -1 58
SWIDTH 225 0
DWIDTH 7 0
BBX 5 6 2 2
BITMAP
20
20
70
70
F8
F8
ENDCHAR
STARTCHAR c59
ENCODING -1 59
SWIDTH 225 0
DWIDTH 7 0
BBX 5 6 2 1
BITMAP
F8
F8
70
70
20
20
ENDCHAR
STARTCHAR c60
ENCODING -1 60
SWIDTH 225 0
DWIDTH 7 0
BBX 6 5 1 2
BITMAP
0C
3C
FC
3C
0C
ENDCHAR
STARTCHAR c62
ENCODING -1 62
SWIDTH 258 0
DWIDTH 8 0
BBX 6 5 2 2
BITMAP
C0
F0
FC
F0
C0
ENDCHAR
STARTCHAR c63
ENCODING -1 63
SWIDTH 516 0
DWIDTH 16 0
BBX 15 15 0 0
BITMAP
2222
0000
8888
0000
2222
0000
8888
0000
2222
0000
8888
0000
2222
0000
8888
ENDCHAR
STARTCHAR c64
ENCODING -1 64
SWIDTH 290 0
DWIDTH 9 0
BBX 9 12 0 0
BITMAP
0800
0800
0800
FF80
7F00
3E00
1C00
0800
FF80
0800
0800
0800
ENDCHAR
STARTCHAR c65
ENCODING -1 65
SWIDTH 290 0
DWIDTH 9 0
BBX 9 12 0 0
BITMAP
0800
0800
0800
FF80
0800
1C00
3E00
7F00
FF80
0800
0800
0800
ENDCHAR
STARTCHAR c66
ENCODING -1 66
SWIDTH 387 0
DWIDTH 12 0
BBX 12 9 0 0
BITMAP
1080
1880
1C80
1E80
FFF0
1E80
1C80
1880
1080
ENDCHAR
STARTCHAR c67
ENCODING -1 67
SWIDTH 387 0
DWIDTH 12 0
BBX 12 9 0 0
BITMAP
1080
1180
1380
1780
FFF0
1780
1380
1180
1080
ENDCHAR
STARTCHAR c68
ENCODING -1 68
SWIDTH 516 0
DWIDTH 16 0
BBX 16 21 0 2
BITMAP
2000
2000
2001
2006
2018
2060
2180
2600
3800
2000
E000
2000
3880
26C0
21E0
21F0
23F8
2006
2001
2000
2000
ENDCHAR
STARTCHAR c69
ENCODING -1 69
SWIDTH 516 0
DWIDTH 16 0
BBX 16 21 0 2
BITMAP
0004
0004
8004
6004
1804
0604
0184
0064
001C
0004
0007
0004
011C
0364
0784
0F84
1FC4
6004
8004
0004
0004
ENDCHAR
STARTCHAR c70
ENCODING -1 70
SWIDTH 516 0
DWIDTH 16 0
BBX 16 21 0 2
BITMAP
2000
2000
2001
2006
2018
2060
2180
2600
3800
2000
E000
2000
3800
2600
21FC
20F8
2078
2036
2011
2000
2000
ENDCHAR
STARTCHAR c71
ENCODING -1 71
SWIDTH 516 0
DWIDTH 16 0
BBX 16 21 0 2
BITMAP
0004
0004
8004
6004
1804
0604
0184
0064
001C
0004
0007
0004
001C
0064
3F84
1F04
1E04
6C04
8804
0004
0004
ENDCHAR
STARTCHAR c72
ENCODING -1 72
SWIDTH 258 0
DWIDTH 8 0
BBX 8 8 0 0
BITMAP
01
02
04
08
10
20
40
80
ENDCHAR
STARTCHAR c73
ENCODING -1 73
SWIDTH 258 0
DWIDTH 8 0
BBX 8 8 0 0
BITMAP
80
40
20
10
08
04
02
01
ENDCHAR
STARTCHAR c74
ENCODING -1 74
SWIDTH 516 0
DWIDTH 16 0
BBX 16 16 0 0
BITMAP
0001
0002
0004
0008
0010
0020
0040
0080
0100
0200
0400
0800
1000
2000
4000
8000
ENDCHAR
STARTCHAR c75
ENCODING -1 75
SWIDTH 516 0
DWIDTH 16 0
BBX 16 16 0 0
BITMAP
8000
4000
2000
1000
0800
0400
0200
0100
0080
0040
0020
0010
0008
0004
0002
0001
ENDCHAR
ENDFONT
